<?xml version="1.0" standalone="no"?><!DOCTYPE svg PUBLIC "-//W3C//DTD SVG 1.1//EN" "http://www.w3.org/Graphics/SVG/1.1/DTD/svg11.dtd"><svg t="1576396690262" class="icon" viewBox="0 0 1024 1024" version="1.1" xmlns="http://www.w3.org/2000/svg" p-id="1284" xmlns:xlink="http://www.w3.org/1999/xlink" width="64" height="64"><defs><style type="text/css"></style></defs><path d="M707.657143 246.857143h-457.142857L237.714286 153.6c-1.828571-9.142857-10.971429-16.457143-20.114286-16.457143-9.142857 1.828571-16.457143 10.971429-16.457143 20.114286l14.628572 109.714286v1.828571c0 1.828571 0 1.828571 1.828571 3.657143l3.657143 3.657143 1.828571 1.828571c1.828571 1.828571 1.828571 1.828571 3.657143 1.828572l1.828572 1.828571c1.828571 0 3.657143 1.828571 7.314285 1.828571h471.771429c56.685714 0 78.628571 51.2 78.628571 96.914286-1.828571 109.714286-25.6 265.142857-78.628571 265.142857H279.771429c-10.971429 0-18.285714 7.314286-18.285715 18.285715s7.314286 18.285714 18.285715 18.285714h427.885714c106.057143 0 113.371429-252.342857 115.2-301.714286-1.828571-80.457143-47.542857-133.485714-115.2-133.485714z" fill="#ff8198" p-id="1285"></path><path d="M528.457143 488.228571c3.657143-3.657143 5.485714-9.142857 5.485714-12.8s-1.828571-9.142857-5.485714-12.8c-7.314286-7.314286-20.114286-7.314286-25.6 0-3.657143 3.657143-5.485714 7.314286-5.485714 12.8 0 5.485714 1.828571 9.142857 5.485714 12.8 3.657143 3.657143 9.142857 5.485714 12.8 5.485715 5.485714 0 9.142857-1.828571 12.8-5.485715zM475.428571 475.428571c0-10.971429-7.314286-18.285714-18.285714-18.285714H243.2c-10.971429 0-18.285714 7.314286-18.285714 18.285714s7.314286 18.285714 18.285714 18.285715H457.142857c9.142857 0 18.285714-9.142857 18.285714-18.285715z" fill="#ff8198" p-id="1286"></path><path d="M327.314286 800.914286m-45.714286 0a45.714286 45.714286 0 1 0 91.428571 0 45.714286 45.714286 0 1 0-91.428571 0Z" fill="#ff8198" p-id="1287"></path><path d="M698.514286 800.914286m-45.714286 0a45.714286 45.714286 0 1 0 91.428571 0 45.714286 45.714286 0 1 0-91.428571 0Z" fill="#ff8198" p-id="1288"></path></svg>